<svg width="49" height="49" viewBox="0 0 49 49" fill="none" xmlns="http://www.w3.org/2000/svg">
<rect width="48.4" height="48.4" rx="24.2" fill="#2A2A2A"/>
<path d="M23.494 14.8691C17.7009 14.8691 12.9951 19.5668 12.9951 25.368C12.9951 31.1691 17.6928 35.8668 23.494 35.8668C29.2951 35.8668 33.9928 31.1691 33.9928 25.368C33.9928 19.5668 29.2951 14.8691 23.494 14.8691ZM23.494 32.1752C19.7293 32.1752 16.6786 29.1245 16.6786 25.3599C16.6786 21.5952 19.7293 18.5445 23.494 18.5445C27.2586 18.5445 30.3093 21.5952 30.3093 25.3599C30.3093 29.1245 27.2586 32.1752 23.494 32.1752Z" fill="white"/>
<path d="M34.4063 16.8986C35.7596 16.8986 36.8566 15.8016 36.8566 14.4483C36.8566 13.0951 35.7596 11.998 34.4063 11.998C33.0531 11.998 31.9561 13.0951 31.9561 14.4483C31.9561 15.8016 33.0531 16.8986 34.4063 16.8986Z" fill="white"/>
</svg>
