<svg width="49" height="49" viewBox="0 0 49 49" fill="none" xmlns="http://www.w3.org/2000/svg">
<rect width="48.4" height="48.4" rx="24.2" fill="#2A2A2A"/>
<path d="M13.0134 16.6651C13.1952 16.6512 13.3723 16.625 13.551 16.625C14.9371 16.6281 16.3217 16.6327 17.7078 16.6435C18.6827 16.6512 19.6576 16.6435 20.6309 16.6944C21.4857 16.7391 22.2989 16.9704 23.0043 17.4886C23.7928 18.0668 24.2195 18.8548 24.3473 19.814C24.4459 20.5527 24.3904 21.2697 24.047 21.9452C23.7774 22.4772 23.3601 22.8612 22.8333 23.1341C22.7609 23.1711 22.6916 23.2143 22.5915 23.2714C22.667 23.3161 22.7101 23.3485 22.7579 23.3685C23.9022 23.8404 24.5768 24.7009 24.7939 25.899C25.0711 27.4288 24.7031 28.7766 23.551 29.873C22.8564 30.5345 22.0047 30.8198 21.0745 30.9447C19.6807 31.1329 18.2807 31.0249 16.8838 31.0465C15.6656 31.065 14.4458 31.0465 13.226 31.0527C13.0489 31.0527 13.0057 31.0064 13.0073 30.8244C13.0134 29.6679 12.998 28.5113 12.998 27.3532C12.998 26.0286 13.0165 24.7039 13.0181 23.3793C13.0181 22.158 13.0057 20.9351 13.0042 19.7138C13.0042 18.8564 13.0104 17.999 13.0134 17.1416C13.0134 16.9951 13.0134 16.8486 13.0134 16.6651ZM16.334 24.7425C16.334 24.9985 16.334 25.2282 16.334 25.4565C16.334 26.428 16.3371 27.401 16.3247 28.3725C16.3217 28.5483 16.3648 28.5946 16.5342 28.59C17.0209 28.5746 17.5091 28.5761 17.9958 28.5668C18.7581 28.553 19.522 28.5622 20.2813 28.5144C21.0052 28.4681 21.5735 27.9562 21.7183 27.2499C21.7814 26.9415 21.7645 26.6161 21.7845 26.2969C21.8091 25.8852 21.632 25.549 21.3579 25.2668C20.9482 24.8458 20.3922 24.7702 19.8501 24.7502C18.9537 24.7163 18.0558 24.741 17.1579 24.741C16.8838 24.741 16.6112 24.741 16.3355 24.741L16.334 24.7425ZM18.2514 19.1879C18.2514 19.1879 18.2514 19.1787 18.2514 19.1756C17.7001 19.1756 17.1487 19.1787 16.5958 19.1741C16.3371 19.171 16.3386 19.1633 16.3371 19.4285C16.334 20.3507 16.334 21.2713 16.3247 22.1934C16.3232 22.3461 16.4002 22.3384 16.5049 22.3369C17.2226 22.3322 17.9419 22.3307 18.6596 22.3245C19.1139 22.3214 19.5729 22.343 20.0241 22.2952C20.959 22.1965 21.4272 21.7678 21.5134 20.9289C21.572 20.3615 21.4934 19.7955 20.9451 19.4809C20.6617 19.3175 20.3091 19.2265 19.981 19.2018C19.4081 19.1571 18.829 19.1895 18.2514 19.1895V19.1879Z" fill="white"/>
<path d="M36.0229 27.6749C35.9644 28.1205 35.7873 28.5091 35.5362 28.8576C34.9017 29.7382 34.0901 30.3781 33.032 30.7035C32.0386 31.0088 31.0329 31.052 30.0272 30.8747C28.4624 30.5987 27.2149 29.8338 26.4726 28.3796C26.1768 27.7982 26.0151 27.1722 25.9474 26.526C25.8642 25.7396 25.8657 24.9531 26.009 24.1744C26.1738 23.2753 26.4864 22.4349 27.0794 21.724C27.8371 20.8157 28.8228 20.2914 29.9764 20.0801C31.2115 19.8535 32.4005 20.0385 33.5448 20.5366C34.0177 20.7417 34.4135 21.0501 34.7569 21.431C35.7118 22.4873 36.2278 23.7087 36.18 25.149C36.1677 25.499 36.1785 25.8506 36.1785 26.2192H28.6103C28.6303 26.4011 28.6426 26.563 28.6672 26.7234C28.8274 27.7844 29.4527 28.5168 30.4677 28.7204C31.19 28.8654 31.9369 28.8931 32.5792 28.4351C32.8102 28.2701 32.9704 28.0064 33.1691 27.7936C33.2245 27.735 33.2984 27.6517 33.3646 27.6517C34.224 27.644 35.0819 27.6502 35.9413 27.6517C35.9598 27.6517 35.9767 27.6625 36.0229 27.6764V27.6749ZM33.3785 24.4088C33.3569 24.2561 33.3462 24.1358 33.3246 24.0171C33.2091 23.411 32.9257 22.8898 32.3944 22.5768C31.6797 22.1558 30.8881 22.0987 30.1119 22.3732C29.2633 22.6724 28.8752 23.3555 28.735 24.2098C28.7073 24.3779 28.7504 24.4257 28.9152 24.4257C30.326 24.4226 31.7383 24.4257 33.149 24.4257C33.2183 24.4257 33.2861 24.4165 33.38 24.4103L33.3785 24.4088Z" fill="white"/>
<path d="M28.1191 18.6916C28.1191 18.2321 28.1207 17.7988 28.1191 17.3655C28.1191 17.2236 28.2162 17.239 28.304 17.239C28.9508 17.239 29.5992 17.239 30.2461 17.239C31.4258 17.239 32.604 17.239 33.7837 17.2344C33.9347 17.2344 33.9824 17.2729 33.9763 17.4287C33.9624 17.7864 33.9639 18.1442 33.9763 18.502C33.9809 18.6577 33.927 18.6963 33.7791 18.6947C32.7796 18.6886 31.78 18.6916 30.7805 18.6916C29.9735 18.6916 29.1664 18.6916 28.3594 18.6916C28.2963 18.6916 28.2331 18.6916 28.1222 18.6916H28.1191Z" fill="white"/>
</svg>
