<svg width="49" height="49" viewBox="0 0 49 49" fill="none" xmlns="http://www.w3.org/2000/svg">
<rect width="48.4" height="48.4" rx="24.2" fill="#2A2A2A"/>
<path d="M25.9797 20.2005C26.0919 20.1453 26.1625 20.1158 26.2278 20.0778C27.0503 19.5974 27.9288 19.322 28.8825 19.2364C29.9285 19.1422 30.8325 19.42 31.5986 20.1277C32.2228 20.7042 32.5826 21.4452 32.7446 22.2675C32.8554 22.8302 32.9321 23.4095 32.9369 23.9821C32.9577 26.5119 32.9449 29.0417 32.9511 31.5715C32.9511 31.7669 32.8966 31.8302 32.6972 31.8288C31.6001 31.8202 30.5029 31.8192 29.4057 31.8292C29.1917 31.8311 29.1424 31.7607 29.1429 31.5567C29.1491 29.0188 29.1472 26.481 29.1462 23.9436C29.1462 23.8327 29.1505 23.72 29.132 23.6116C29.0354 23.0466 28.8138 22.8121 28.2479 22.7208C27.4197 22.5871 26.5119 22.9462 26.1123 23.7433C26.0341 23.8989 25.9863 24.0886 25.9858 24.2627C25.9778 26.6817 25.9773 29.1002 25.9858 31.5191C25.9868 31.7517 25.9385 31.834 25.6885 31.8311C24.6074 31.8169 23.5254 31.8197 22.4443 31.8297C22.2369 31.8316 22.1753 31.7731 22.1758 31.5624C22.1815 27.5335 22.1815 23.5051 22.1758 19.4761C22.1758 19.2754 22.2189 19.1988 22.4362 19.2012C23.5334 19.2117 24.6306 19.2103 25.7278 19.2022C25.9224 19.2008 25.9967 19.2554 25.9835 19.4566C25.9678 19.6897 25.9797 19.9251 25.9797 20.201V20.2005Z" fill="white"/>
<path d="M19.7902 25.5397C19.7902 27.5384 19.7869 29.5371 19.7949 31.5358C19.7958 31.7622 19.7383 31.8335 19.5069 31.8312C18.4212 31.8193 17.3349 31.8212 16.2487 31.8302C16.0481 31.8316 15.9971 31.765 15.9971 31.5714C16.0018 27.5341 16.0018 23.4973 15.9971 19.46C15.9971 19.2659 16.0495 19.2003 16.2492 19.2017C17.343 19.2102 18.4372 19.2112 19.531 19.2012C19.7425 19.1993 19.7954 19.2659 19.7944 19.4723C19.7874 21.4948 19.7902 23.5173 19.7902 25.5402V25.5397Z" fill="white"/>
<path d="M19.6196 15.751C19.6182 16.7781 18.8326 17.6099 17.8621 17.6099C16.9006 17.6099 16.0883 16.7615 16.0869 15.7555C16.085 14.7509 16.8917 13.8892 17.856 13.9005C18.8807 13.9127 19.635 14.7709 19.6196 15.7506V15.751Z" fill="white"/>
</svg>
